<?xml version="1.0" encoding="utf-8"?>
<!-- Generator: Adobe Illustrator 24.0.0, SVG Export Plug-In . SVG Version: 6.00 Build 0)  -->
<svg version="1.1" id="Layer_1" xmlns="http://www.w3.org/2000/svg" xmlns:xlink="http://www.w3.org/1999/xlink" x="0px" y="0px"
	 viewBox="0 0 718.1 211" style="enable-background:new 0 0 718.1 211;" xml:space="preserve">
<style type="text/css">
	.st0{fill:url(#SVGID_1_);}
	.st1{fill:url(#SVGID_2_);}
	.st2{fill:url(#SVGID_3_);}
	.st3{fill:url(#SVGID_4_);}
	.st4{fill:url(#SVGID_5_);}
</style>
<g>
	<linearGradient id="SVGID_1_" gradientUnits="userSpaceOnUse" x1="559.7482" y1="157.399" x2="695.633" y2="-4.5422">
		<stop  offset="0" style="stop-color:#033072"/>
		<stop  offset="1" style="stop-color:#00F3A6"/>
	</linearGradient>
	<path class="st0" d="M692.8,0.8H573.1c-13.9,0-25.3,11.5-25.3,25.4v0c0,13.9,11.3,25.3,25.3,25.3h31.7c1.4,0,2.5,1.1,2.5,2.5v131.9
		c0,13.9,11.5,25,25.5,25h-0.1c13.9,0,25.2-11.1,25.2-25V54c0-1.4,1.1-2.5,2.5-2.5h32.3c13.9,0,25.3-11.4,25.3-25.3v0
		C718.1,12.2,706.7,0.8,692.8,0.8z"/>
	<linearGradient id="SVGID_2_" gradientUnits="userSpaceOnUse" x1="219.164" y1="186.1259" x2="353.9804" y2="25.458">
		<stop  offset="0" style="stop-color:#033072"/>
		<stop  offset="1" style="stop-color:#00F3A6"/>
	</linearGradient>
	<path class="st1" d="M286.6,51.3c30,0,54.5,24.4,54.5,54.5s-24.4,54.5-54.5,54.5c-30,0-54.5-24.4-54.5-54.5S256.5,51.3,286.6,51.3
		 M286.6,0.9c-57.9,0-104.9,47-104.9,104.9s47,104.9,104.9,104.9s104.9-47,104.9-104.9S344.5,0.9,286.6,0.9L286.6,0.9z"/>
	<linearGradient id="SVGID_3_" gradientUnits="userSpaceOnUse" x1="422.737" y1="193.399" x2="533.8046" y2="61.0339">
		<stop  offset="0" style="stop-color:#033072"/>
		<stop  offset="1" style="stop-color:#00F3A6"/>
	</linearGradient>
	<path class="st2" d="M539.1,160.3h-58.2c-1.4,0-2.5-1.1-2.5-2.5V26.2c0-13.9-11.5-25.3-25.4-25.3h0c-13.9,0-25.3,11.4-25.3,25.3
		l-0.1,159.5l0,0c0,13.9,11.3,25.3,25.2,25.3l-0.1,0h86.7c13.8,0,25-11.2,25-25v-0.3C564.4,171.7,553,160.3,539.1,160.3z"/>
	<linearGradient id="SVGID_4_" gradientUnits="userSpaceOnUse" x1="23.2749" y1="194.4809" x2="172.3308" y2="16.843">
		<stop  offset="0" style="stop-color:#033072"/>
		<stop  offset="1" style="stop-color:#00F3A6"/>
	</linearGradient>
	<path class="st3" d="M156.5,4L156.5,4c-12.1-7-27.6-2.8-34.6,9.3l-92,159.4c-7,12.1-2.8,27.6,9.3,34.6l0,0
		c12.1,7,27.6,2.8,34.6-9.3l92-159.4C172.7,26.6,168.5,11,156.5,4z"/>
	<linearGradient id="SVGID_5_" gradientUnits="userSpaceOnUse" x1="81.1231" y1="101.5792" x2="17.7152" y2="0.1054">
		<stop  offset="0" style="stop-color:#033072"/>
		<stop  offset="1" style="stop-color:#00F3A6"/>
	</linearGradient>
	<path class="st4" d="M65.2,111.5l29.3-50.7c-0.9,1.5-2.9,1.7-4.1,0.4L42.5,8.1C33.2-2.3,17.5-2.7,7.7,7.1l0,0
		c-9.9,9.9-10.3,26.4-1,36.8l58.2,64.7C65.6,109.4,65.7,110.6,65.2,111.5z"/>
</g>
</svg>
