<?xml version="1.0" encoding="utf-8"?>
<!-- Generator: Adobe Illustrator 26.0.1, SVG Export Plug-In . SVG Version: 6.00 Build 0)  -->
<svg version="1.1" id="Layer_1" xmlns="http://www.w3.org/2000/svg" xmlns:xlink="http://www.w3.org/1999/xlink" x="0px" y="0px"
	 viewBox="0 0 718.14 210.97" style="enable-background:new 0 0 718.14 210.97;" xml:space="preserve">
<style type="text/css">
	.st0{fill:#FFFFFF;}
	.st1{fill:url(#SVGID_1_);}
</style>
<g>
	<path class="st0" d="M692.8,0.78H573.11c-13.92,0-25.26,11.51-25.26,25.43v-0.05c0,13.92,11.34,25.26,25.26,25.26h31.72
		c1.4,0,2.53,1.13,2.53,2.53v131.88c0,13.92,11.54,25,25.46,25h-0.06c13.92,0,25.24-11.09,25.24-25V53.95c0-1.4,1.13-2.53,2.53-2.53
		h32.3c13.92,0,25.3-11.39,25.3-25.3v0C718.14,12.18,706.74,0.78,692.8,0.78z"/>
	<path class="st0" d="M286.57,51.31c30.04,0,54.48,24.44,54.48,54.48s-24.44,54.48-54.48,54.48c-30.04,0-54.48-24.44-54.48-54.48
		S256.53,51.31,286.57,51.31 M286.57,0.93c-57.92,0-104.87,46.95-104.87,104.87s46.95,104.87,104.87,104.87
		s104.87-46.95,104.87-104.87S344.49,0.93,286.57,0.93L286.57,0.93z"/>
	<path class="st0" d="M539.09,160.29h-58.22c-1.4,0-2.53-1.13-2.53-2.53V26.2c0-13.92-11.51-25.32-25.43-25.32h0.05
		c-13.92,0-25.26,11.4-25.26,25.31l-0.11,159.5l0,0c0,13.92,11.33,25.27,25.25,25.27l-0.06-0.03h86.65c13.81,0,25-11.19,25-25v-0.31
		C564.43,171.7,553.02,160.29,539.09,160.29z"/>
	<path class="st0" d="M156.47,4.04L156.47,4.04c-12.05-6.96-27.61-2.79-34.57,9.26L29.87,172.72c-6.96,12.05-2.79,27.61,9.26,34.57
		l0,0c12.05,6.96,27.61,2.79,34.57-9.26l92.04-159.42C172.7,26.55,168.53,11,156.47,4.04z"/>
	<linearGradient id="SVGID_1_" gradientUnits="userSpaceOnUse" x1="81.1231" y1="101.5792" x2="17.7152" y2="0.1054">
		<stop  offset="0" style="stop-color:#FFFFFF;stop-opacity:0.4"/>
		<stop  offset="0.5" style="stop-color:#FFFFFF"/>
	</linearGradient>
	<path class="st1" d="M65.2,111.53l29.28-50.71c-0.86,1.49-2.93,1.71-4.08,0.43L42.55,8.05C33.23-2.31,17.54-2.73,7.69,7.13l0,0
		c-9.85,9.85-10.29,26.4-0.97,36.76l58.17,64.69C65.62,109.39,65.74,110.58,65.2,111.53z"/>
</g>
</svg>
