<svg width="24" height="24" xmlns="http://www.w3.org/2000/svg"><path d="m12.499 2.606.13.07 8.693 5.377a1 1 0 0 1 .674.857l.003.05L22 9v.022l-.002.045L22 9a1 1 0 0 1-.883.993L21 10h-2v9h2.09c.503 0 .91.448.91 1 0 .513-.35.936-.803.993L21.09 21H2.909C2.407 21 2 20.552 2 20c0-.513.35-.936.803-.993L2.91 19H5v-9H3a1 1 0 0 1-1-.99V8.98c0-.023.002-.045.004-.067L2 9a1 1 0 0 1 .678-.947l8.693-5.377c.337-.209.77-.232 1.128-.07ZM7 19h1v-9H7v9Zm7-9h-4v9h4v-9Zm3 0h-1v9h1v-9Zm-5-5.287L6.687 8h10.625L12 4.713Z" fill="#4176F1" fill-rule="nonzero"/></svg>