<?xml version="1.0" encoding="UTF-8"?>
<svg width="21px" height="20px" viewBox="0 0 21 20" version="1.1" xmlns="http://www.w3.org/2000/svg" xmlns:xlink="http://www.w3.org/1999/xlink">
    <title>Cash out</title>
    <g id="flow-11102021" stroke="none" stroke-width="1" fill="none" fill-rule="evenodd">
        <g id="CFA---Dashboard" transform="translate(-519.000000, -1169.000000)" fill="#FFFFFF" fill-rule="nonzero">
            <path d="M538.5,1175.5 C539.052285,1175.5 539.5,1175.94772 539.5,1176.5 L539.5,1176.5 L539.5,1186.5 C539.5,1188.15685 538.156854,1189.5 536.5,1189.5 L536.5,1189.5 L522.5,1189.5 C520.843146,1189.5 519.5,1188.15685 519.5,1186.5 L519.5,1186.5 L519.5,1176.5 C519.5,1175.94772 519.947715,1175.5 520.5,1175.5 C521.052285,1175.5 521.5,1175.94772 521.5,1176.5 L521.5,1176.5 L521.5,1186.5 C521.5,1187.05228 521.947715,1187.5 522.5,1187.5 L522.5,1187.5 L536.5,1187.5 C537.052285,1187.5 537.5,1187.05228 537.5,1186.5 L537.5,1186.5 L537.5,1176.5 C537.5,1175.94772 537.947715,1175.5 538.5,1175.5 Z M530.207107,1168.79289 L534.207107,1172.79289 C534.597631,1173.18342 534.597631,1173.81658 534.207107,1174.20711 C533.816582,1174.59763 533.183418,1174.59763 532.792893,1174.20711 L530.499,1171.914 L530.5,1183.5 C530.5,1184.05228 530.052285,1184.5 529.5,1184.5 C528.947715,1184.5 528.5,1184.05228 528.5,1183.5 L528.499,1171.914 L526.207107,1174.20711 C525.816582,1174.59763 525.183418,1174.59763 524.792893,1174.20711 C524.402369,1173.81658 524.402369,1173.18342 524.792893,1172.79289 L528.792893,1168.79289 C529.183418,1168.40237 529.816582,1168.40237 530.207107,1168.79289 Z" id="Cash-out" transform="translate(529.500000, 1179.000000) rotate(90.000000) translate(-529.500000, -1179.000000) "></path>
        </g>
    </g>
</svg>