<?xml version="1.0" encoding="UTF-8"?>
<svg width="21px" height="20px" viewBox="0 0 21 20" version="1.1" xmlns="http://www.w3.org/2000/svg" xmlns:xlink="http://www.w3.org/1999/xlink">
    <title>Cash in</title>
    <g id="flow-11102021" stroke="none" stroke-width="1" fill="none" fill-rule="evenodd">
        <g id="CFA---Dashboard" transform="translate(-81.000000, -1169.000000)" fill="#FFFFFF" fill-rule="nonzero">
            <path d="M92.2071068,1173.79289 L96.2071068,1177.79289 C96.5976311,1178.18342 96.5976311,1178.81658 96.2071068,1179.20711 C95.8165825,1179.59763 95.1834175,1179.59763 94.7928932,1179.20711 L92.499,1176.914 L92.5,1188.5 C92.5,1189.05228 92.0522847,1189.5 91.5,1189.5 C90.9477153,1189.5 90.5,1189.05228 90.5,1188.5 L90.499,1176.914 L88.2071068,1179.20711 C87.8165825,1179.59763 87.1834175,1179.59763 86.7928932,1179.20711 C86.4023689,1178.81658 86.4023689,1178.18342 86.7928932,1177.79289 L90.7928932,1173.79289 C91.1834175,1173.40237 91.8165825,1173.40237 92.2071068,1173.79289 Z M98.5,1168.5 C100.156854,1168.5 101.5,1169.84315 101.5,1171.5 L101.5,1171.5 L101.5,1181.5 C101.5,1182.05228 101.052285,1182.5 100.5,1182.5 C99.9477153,1182.5 99.5,1182.05228 99.5,1181.5 L99.5,1181.5 L99.5,1171.5 C99.5,1170.94772 99.0522847,1170.5 98.5,1170.5 L98.5,1170.5 L84.5,1170.5 C83.9477153,1170.5 83.5,1170.94772 83.5,1171.5 L83.5,1171.5 L83.5,1181.5 C83.5,1182.05228 83.0522847,1182.5 82.5,1182.5 C81.9477153,1182.5 81.5,1182.05228 81.5,1181.5 L81.5,1181.5 L81.5,1171.5 C81.5,1169.84315 82.8431458,1168.5 84.5,1168.5 L84.5,1168.5 Z" id="Cash-in" transform="translate(91.500000, 1179.000000) rotate(90.000000) translate(-91.500000, -1179.000000) "></path>
        </g>
    </g>
</svg>