<?xml version="1.0" encoding="UTF-8"?>
<svg width="24px" height="24px" viewBox="0 0 24 24" version="1.1" xmlns="http://www.w3.org/2000/svg" xmlns:xlink="http://www.w3.org/1999/xlink">
    <title>Interface/SVG/Logout</title>
    <g id="Interface/Logout" stroke="none" stroke-width="1" fill="none" fill-rule="evenodd">
        <path d="M21,8 C21.5522847,8 22,8.44771525 22,9 L22,9 L22,19 C22,20.6568542 20.6568542,22 19,22 L19,22 L5,22 C3.34314575,22 2,20.6568542 2,19 L2,19 L2,9 C2,8.44771525 2.44771525,8 3,8 C3.55228475,8 4,8.44771525 4,9 L4,9 L4,19 C4,19.5522847 4.44771525,20 5,20 L5,20 L19,20 C19.5522847,20 20,19.5522847 20,19 L20,19 L20,9 C20,8.44771525 20.4477153,8 21,8 Z M12,2 C12.5522847,2 13,2.44771525 13,3 L13,3 L13,14.585 L15.2928932,12.2928932 C15.6533772,11.9324093 16.2206082,11.9046797 16.6128994,12.2097046 L16.7071068,12.2928932 C17.0976311,12.6834175 17.0976311,13.3165825 16.7071068,13.7071068 L16.7071068,13.7071068 L12.7071068,17.7071068 C12.3165825,18.0976311 11.6834175,18.0976311 11.2928932,17.7071068 L11.2928932,17.7071068 L7.29289322,13.7071068 C6.90236893,13.3165825 6.90236893,12.6834175 7.29289322,12.2928932 C7.68341751,11.9023689 8.31658249,11.9023689 8.70710678,12.2928932 L8.70710678,12.2928932 L11,14.585 L11,3 C11,2.48716416 11.3860402,2.06449284 11.8833789,2.00672773 Z" id="Combined-Shape" fill="#4176F1" fill-rule="nonzero" transform="translate(12.000000, 12.000000) rotate(-90.000000) translate(-12.000000, -12.000000) "></path>
    </g>
</svg>