<?xml version="1.0" encoding="UTF-8"?>
<svg width="40px" height="40px" viewBox="0 0 40 40" version="1.1" xmlns="http://www.w3.org/2000/svg" xmlns:xlink="http://www.w3.org/1999/xlink">
    <title>Yolt_Illustration/Nudges/Alert/Midnight_Doubloons</title>
    <defs>
        <linearGradient x1="0%" y1="86.3757413%" x2="100%" y2="50%" id="linearGradient-1">
            <stop stop-color="#65CFF7" offset="0%"></stop>
            <stop stop-color="#033072" offset="100%"></stop>
        </linearGradient>
        <linearGradient x1="1.52297936%" y1="100%" x2="98.4770206%" y2="50%" id="linearGradient-2">
            <stop stop-color="#65CFF7" offset="0%"></stop>
            <stop stop-color="#033072" offset="100%"></stop>
        </linearGradient>
        <linearGradient x1="0%" y1="95.9181006%" x2="100%" y2="50%" id="linearGradient-3">
            <stop stop-color="#65CFF7" offset="0%"></stop>
            <stop stop-color="#033072" offset="100%"></stop>
        </linearGradient>
    </defs>
    <g id="Nudges" stroke="none" stroke-width="1" fill="none" fill-rule="evenodd">
        <g id="Yolt_Illustration/Nudges/Alert/Midnight_Doubloons">
            <path d="M30.9180877,11.1857491 L27.1854446,14.9183922 C26.9381851,15.1656516 26.9381851,15.5669915 27.1854446,15.8142509 L27.1854446,15.8142509 C27.3090743,15.9378806 27.4710719,16 27.6336784,16 L27.6336784,16 C27.795067,16 27.9582826,15.9378806 28.0813033,15.8142509 L28.0813033,15.8142509 L31.8145554,12.0809988 C32.0618149,11.8337393 32.0618149,11.4323995 31.8145554,11.1857491 L31.8145554,11.1857491 C31.6909257,11.0621194 31.5283191,11 31.3663216,11 L31.3663216,11 C31.204324,11 31.0417174,11.0621194 30.9180877,11.1857491 M20.5,6 C20.2238232,6 20,6.30412131 20,6.67792353 L20,6.67792353 L20,12.3233789 C20,12.6971811 20.2238232,13 20.5,13 L20.5,13 C20.7756964,13 21,12.6971811 21,12.3233789 L21,12.3233789 L21,6.67792353 C21,6.30412131 20.7756964,6 20.5,6 Z M30.6772723,23 C30.3028189,23 30,23.2235577 30,23.4995192 L30,23.4995192 C30,23.7754808 30.3028189,24 30.6772723,24 L30.6772723,24 L36.3227277,24 C36.6965299,24 37,23.7754808 37,23.4995192 L37,23.4995192 C37,23.2235577 36.6965299,23 36.3227277,23 L36.3227277,23 L30.6772723,23 Z M8.18542199,11.1857491 C7.93819267,11.4323995 7.93819267,11.8337393 8.18542199,12.0809988 L8.18542199,12.0809988 L11.9182195,15.8142509 C12.0424431,15.9378806 12.2044209,16 12.3663987,16 L12.3663987,16 C12.5283766,16 12.6903544,15.9378806 12.814578,15.8142509 L12.814578,15.8142509 C13.0618073,15.5669915 13.0618073,15.1656516 12.814578,14.9183922 L12.814578,14.9183922 L9.08178054,11.1857491 C8.95816588,11.0621194 8.79618804,11 8.63360127,11 L8.63360127,11 C8.47162343,11 8.30903666,11.0621194 8.18542199,11.1857491 M3.6772093,23 C3.30344186,23 3,23.2235577 3,23.4995192 L3,23.4995192 C3,23.7754808 3.30344186,24 3.6772093,24 L3.6772093,24 L9.32213953,24 C9.69655814,24 10,23.7754808 10,23.4995192 L10,23.4995192 C10,23.2235577 9.69655814,23 9.32213953,23 L9.32213953,23 L3.6772093,23 Z M30.0932007,30 C31.6987337,30 33,31.2558763 33,32.8046469 L33,35.0001231 L6,35.0001231 L6,32.8046469 C6,31.2558763 7.3012663,30 8.90679928,30 L30.0932007,30 Z" id="Fill-14" fill="url(#linearGradient-1)"></path>
            <path d="M19.3048096,19 L17,30 L27.8311768,30 L26.5678544,20.8616352 C26.416553,19.7958276 25.4507026,19 24.3074643,19 L19.3048096,19 Z" id="Fill-1" fill="url(#linearGradient-2)"></path>
            <path d="M15.9602437,19 C14.7393395,19 13.7037512,19.8559595 13.5274126,21.011965 L12.1828613,30 L18.6480713,30 L23.661377,19 L15.9602437,19 Z" id="Fill-4" fill="url(#linearGradient-3)"></path>
            <path d="M12.1828613,30 L13.5274126,21.011965 C13.7037512,19.8559595 14.7393395,19 15.9602437,19 L15.9602437,19 L24.3074643,19 C25.4507026,19 26.416553,19.7958276 26.5678544,20.8616352 L26.5678544,20.8616352 L27.8311768,30 L12.1828613,30 Z" id="Fill-2" fill-opacity="0.5" fill="#FFFFFF"></path>
        </g>
    </g>
</svg>