<svg width="24" height="23" xmlns="http://www.w3.org/2000/svg"><path d="M16 2a7.003 7.003 0 0 1 6.842 5.514 1 1 0 0 1 1.151.87L24 8.5V12a1 1 0 0 1-1.245.97A8.013 8.013 0 0 1 17 18.748V20a1 1 0 0 1-1.993.117L15 20v-1H8v1a1 1 0 0 1-1.993.117L6 20v-1.252C2.55 17.86 0 14.728 0 11v-1a8 8 0 0 1 8-8Zm0 2H8a6 6 0 0 0-6 6v1a6 6 0 0 0 6 6h7a6 6 0 0 0 6-6V9a5 5 0 0 0-5-5Zm1.5 4a1.5 1.5 0 1 1 0 3 1.5 1.5 0 0 1 0-3ZM15 5a1 1 0 0 1 .117 1.993L15 7H9a1 1 0 0 1-.117-1.993L9 5h6Z" fill="#4176F1" fill-rule="nonzero"/></svg>